<?xml version="1.0" encoding="utf-8"?>
<!-- Generator: Adobe Illustrator 16.0.0, SVG Export Plug-In . SVG Version: 6.00 Build 0)  -->
<!DOCTYPE svg PUBLIC "-//W3C//DTD SVG 1.1//EN" "http://www.w3.org/Graphics/SVG/1.1/DTD/svg11.dtd">
<svg version="1.1" id="Capa_1" xmlns="http://www.w3.org/2000/svg" xmlns:xlink="http://www.w3.org/1999/xlink" x="0px" y="0px"
	 width="512px" height="512px" viewBox="0 0 512 512" enable-background="new 0 0 512 512" xml:space="preserve">
<g>
	<g id="Down">
		<g>
			<path fill="#3D287A" d="M256,0C114.624,0,0,114.625,0,256c0,141.375,114.624,256,256,256c141.375,0,256-114.625,256-256
				C512,114.625,397.375,0,256,0z M256,464c-114.688,0-208-93.313-208-208c0-114.688,93.312-208,208-208
				c114.688,0,208,93.312,208,208C464,370.688,370.688,464,256,464z M344,192c-7.008,0-13.248,3.04-17.632,7.824l-0.064-0.047
				L256,276.48l-70.32-76.705l-0.064,0.048c-4.367-4.784-10.607-7.824-17.616-7.824c-13.247,0-24,10.752-24,24
				c0,6.256,2.448,11.888,6.368,16.176l-0.064,0.048l88,96c4.561,4.945,10.961,7.776,17.696,7.776s13.136-2.831,17.68-7.776
				l88-95.999l-0.063-0.047c3.937-4.288,6.385-9.92,6.385-16.176C368,202.752,357.247,192,344,192z"/>
		</g>
	</g>
</g>
</svg>
