<?xml version="1.0" encoding="utf-8"?>
<!-- Generator: Adobe Illustrator 16.0.0, SVG Export Plug-In . SVG Version: 6.00 Build 0)  -->
<!DOCTYPE svg PUBLIC "-//W3C//DTD SVG 1.1//EN" "http://www.w3.org/Graphics/SVG/1.1/DTD/svg11.dtd">
<svg version="1.1" id="Calque_1" xmlns="http://www.w3.org/2000/svg" xmlns:xlink="http://www.w3.org/1999/xlink" x="0px" y="0px"
	 width="960px" height="560px" viewBox="0 0 960 560" enable-background="new 0 0 960 560" xml:space="preserve">
<g>
	<g>
		<g id="Down">
			<g>
				<path fill="#3D287A" d="M480,25c-141.376,0-256,114.625-256,256s114.624,256,256,256c141.375,0,256-114.625,256-256
					S621.375,25,480,25z M480,489c-114.688,0-208-93.313-208-208c0-114.688,93.312-208,208-208c114.688,0,208,93.312,208,208
					C688,395.688,594.688,489,480,489z M568,217c-7.008,0-13.248,3.039-17.632,7.823l-0.063-0.047L480,301.479l-70.32-76.705
					l-0.064,0.048c-4.367-4.784-10.607-7.824-17.616-7.824c-13.247,0-24,10.753-24,24c0,6.257,2.448,11.889,6.368,16.177
					l-0.064,0.048l88,96c4.561,4.945,10.961,7.775,17.696,7.775c6.734,0,13.136-2.83,17.68-7.775l88-95.999l-0.063-0.047
					c3.938-4.288,6.385-9.92,6.385-16.176C592,227.752,581.247,217,568,217z"/>
			</g>
		</g>
	</g>
</g>
</svg>
