<?xml version="1.0" encoding="utf-8"?>
<!-- Generator: Adobe Illustrator 16.0.0, SVG Export Plug-In . SVG Version: 6.00 Build 0)  -->
<!DOCTYPE svg PUBLIC "-//W3C//DTD SVG 1.1//EN" "http://www.w3.org/Graphics/SVG/1.1/DTD/svg11.dtd">
<svg version="1.1" id="Capa_1" xmlns="http://www.w3.org/2000/svg" xmlns:xlink="http://www.w3.org/1999/xlink" x="0px" y="0px"
	 width="512px" height="512px" viewBox="0 0 512 512" enable-background="new 0 0 512 512" xml:space="preserve">
<g>
	<path fill="#FFE34C" d="M462.451,24.774H49.548C22.297,24.774,0,47.071,0,74.323c0,27.251,22.297,49.548,49.548,49.548h412.903
		c27.252,0,49.549-22.297,49.549-49.548C512,47.071,489.703,24.774,462.451,24.774z"/>
	<path fill="#FFE34C" d="M462.451,206.452H49.548C22.297,206.452,0,228.749,0,256c0,27.252,22.297,49.549,49.548,49.549h412.903
		C489.703,305.549,512,283.252,512,256C512,228.749,489.703,206.452,462.451,206.452z"/>
	<path fill="#FFE34C" d="M462.451,388.129H49.548C22.297,388.129,0,410.426,0,437.678c0,27.251,22.297,49.548,49.548,49.548h412.903
		c27.252,0,49.549-22.297,49.549-49.548C512,410.426,489.703,388.129,462.451,388.129z"/>
</g>
</svg>
